<?xml version="1.0" standalone="no"?>
<!DOCTYPE svg PUBLIC "-//W3C//DTD SVG 20010904//EN"
 "http://www.w3.org/TR/2001/REC-SVG-20010904/DTD/svg10.dtd">
<svg version="1.0" xmlns="http://www.w3.org/2000/svg"
 width="256.000000pt" height="256.000000pt" viewBox="0 0 256.000000 256.000000"
 preserveAspectRatio="xMidYMid meet">
<metadata>
Created by potrace 1.14, written by Peter Selinger 2001-2017
</metadata>
<g transform="translate(0.000000,256.000000) scale(0.100000,-0.100000)"
fill="#000000" stroke="none">
<path d="M1060 2303 c-80 -28 -124 -66 -173 -150 -18 -30 -40 -67 -49 -81 -9
-15 -23 -38 -31 -52 -7 -14 -98 -164 -201 -335 -104 -170 -198 -326 -210 -346
-11 -20 -76 -128 -144 -240 -68 -112 -128 -211 -132 -219 -5 -8 -35 -57 -66
-108 -31 -51 -54 -95 -53 -97 16 -15 171 -105 181 -105 7 0 40 46 73 102 33
55 70 117 81 137 12 20 86 142 164 271 78 129 150 249 160 265 9 17 36 62 60
100 62 101 88 146 107 183 9 17 20 32 25 32 4 0 8 5 8 11 0 6 14 31 30 56 17
24 30 46 30 49 0 3 16 30 35 60 19 30 35 57 35 60 0 3 14 25 30 49 17 24 30
47 30 52 0 4 16 26 34 48 l34 40 137 3 c76 2 148 1 161 -2 28 -7 65 -41 82
-76 7 -14 18 -34 25 -45 7 -11 39 -65 72 -120 33 -55 62 -102 65 -105 5 -5 21
-32 47 -80 8 -14 23 -38 33 -55 11 -16 29 -48 41 -70 12 -22 24 -42 28 -45 3
-3 12 -15 19 -27 26 -49 37 -67 45 -77 4 -6 29 -47 55 -91 25 -44 50 -81 54
-83 4 -2 8 -8 8 -13 0 -8 53 -98 161 -274 10 -16 23 -39 28 -51 5 -11 15 -27
23 -35 7 -8 24 -36 38 -62 13 -26 28 -47 33 -47 4 0 5 -4 2 -10 -3 -5 -1 -10
4 -10 6 0 11 -4 11 -9 0 -16 72 -131 82 -131 12 0 71 31 78 40 3 4 24 17 48
29 24 12 45 28 48 36 5 13 -80 167 -114 208 -8 9 -11 17 -7 17 4 0 1 8 -7 18
-14 15 -106 164 -148 237 -9 17 -63 107 -120 200 -57 94 -110 183 -119 199 -9
17 -20 35 -24 40 -21 29 -97 159 -97 167 0 5 -4 9 -9 9 -5 0 -11 6 -13 13 -2
7 -61 110 -133 229 -135 223 -167 261 -244 287 -34 11 -420 15 -451 4z"/>
<path d="M1100 1752 c-97 -12 -141 -53 -245 -230 -14 -24 -104 -174 -115 -192
-66 -108 -110 -182 -110 -186 0 -3 -5 -10 -10 -17 -13 -15 -220 -357 -220
-364 0 -2 -12 -20 -26 -39 -15 -19 -22 -34 -18 -34 5 0 4 -4 -1 -8 -14 -9 -95
-145 -95 -158 0 -5 26 -24 58 -42 31 -18 72 -42 90 -54 18 -11 35 -19 37 -17
2 2 33 54 69 114 36 61 69 115 73 120 4 6 19 30 32 55 13 25 30 52 36 60 7 8
21 30 31 49 11 18 24 41 29 50 6 9 70 115 143 236 73 121 137 227 142 235 5 8
30 50 56 93 25 43 56 85 69 93 17 11 54 15 148 15 126 0 177 -6 177 -22 0 -4
13 -27 29 -51 16 -24 38 -59 49 -78 11 -19 49 -84 86 -144 36 -60 66 -110 66
-112 0 -4 46 -74 58 -89 4 -5 9 -13 10 -18 2 -9 28 -51 53 -89 11 -15 19 -30
19 -32 0 -5 15 -30 77 -131 7 -11 27 -45 45 -75 17 -30 35 -56 40 -58 4 -2 8
-8 8 -12 0 -11 119 -210 126 -210 8 0 174 102 179 111 3 4 -6 26 -20 48 -14
23 -25 45 -25 51 0 5 -4 10 -10 10 -5 0 -10 7 -10 15 0 8 -4 15 -10 15 -5 0
-10 4 -10 9 0 5 -37 71 -82 146 -46 75 -93 153 -105 173 -13 20 -25 45 -29 55
-3 9 -10 17 -15 17 -5 0 -9 5 -9 10 0 6 -22 46 -50 90 -27 44 -50 84 -50 89 0
5 -3 11 -8 13 -9 4 -112 177 -112 189 0 5 -4 9 -10 9 -5 0 -10 7 -10 15 0 8
-4 15 -9 15 -5 0 -11 8 -14 18 -16 47 -95 165 -130 192 -58 46 -93 53 -277 54
-96 1 -186 0 -200 -2z"/>
<path d="M1055 1180 c-63 -28 -100 -68 -160 -168 -30 -51 -55 -95 -55 -98 0
-3 -5 -10 -11 -17 -6 -7 -79 -127 -163 -267 -169 -280 -164 -266 -89 -305 21
-11 54 -30 73 -42 46 -31 53 -29 77 14 11 21 43 75 72 121 28 46 51 85 51 87
0 2 34 57 75 124 41 66 75 124 75 129 0 5 9 17 20 27 10 9 18 20 17 24 -1 7
22 53 32 61 10 8 31 44 37 62 3 9 20 23 37 31 43 20 230 21 267 2 23 -12 120
-154 120 -176 0 -5 5 -9 10 -9 6 0 10 -4 10 -9 0 -5 50 -92 111 -193 62 -100
121 -199 132 -218 10 -19 28 -47 38 -62 11 -14 19 -31 19 -37 0 -11 23 -1 74
32 11 6 43 27 72 44 l53 33 -80 130 c-43 72 -79 134 -79 139 0 5 -4 11 -8 13
-5 2 -28 37 -53 78 -24 41 -47 77 -51 78 -5 2 -8 8 -8 13 0 11 -148 259 -166
277 -8 7 -14 17 -14 20 0 4 -24 23 -52 42 l-53 35 -195 1 c-169 2 -200 0 -235
-16z"/>
</g>
</svg>
