<?xml version="1.0" standalone="no"?>
<!DOCTYPE svg PUBLIC "-//W3C//DTD SVG 20010904//EN"
 "http://www.w3.org/TR/2001/REC-SVG-20010904/DTD/svg10.dtd">
<svg version="1.0" xmlns="http://www.w3.org/2000/svg"
 width="267.000000pt" height="267.000000pt" viewBox="0 0 267.000000 267.000000"
 preserveAspectRatio="xMidYMid meet">
<metadata>
Created by potrace 1.14, written by Peter Selinger 2001-2017
</metadata>
<g transform="translate(0.000000,267.000000) scale(0.100000,-0.100000)"
fill="#000000" stroke="none">
<path d="M1105 2281 c-84 -21 -123 -60 -217 -217 -36 -60 -251 -417 -477 -793
-311 -516 -409 -686 -399 -693 39 -26 177 -108 181 -108 3 0 14 15 24 33 11
17 107 176 213 352 208 345 205 340 266 442 289 482 430 712 450 733 24 24 30
25 172 28 86 2 158 -1 175 -7 25 -10 62 -58 115 -152 11 -19 97 -162 192 -319
95 -157 178 -294 184 -305 6 -11 70 -117 141 -235 71 -118 134 -223 140 -232
111 -188 197 -328 204 -332 7 -5 173 86 198 108 1 1 -14 29 -34 61 -117 194
-834 1384 -876 1455 -103 175 -138 190 -426 189 -108 -1 -209 -4 -226 -8z"/>
<path d="M1099 1697 c-47 -18 -93 -51 -117 -85 -18 -24 -529 -869 -556 -917
-6 -11 -44 -75 -85 -143 -44 -73 -70 -127 -65 -132 17 -17 178 -110 185 -108
6 2 205 325 279 453 144 249 417 688 434 697 29 17 271 20 309 5 23 -10 91
-116 368 -577 187 -311 344 -569 349 -574 8 -8 200 98 200 110 0 2 -11 23 -26
45 -14 22 -33 55 -43 72 -19 33 -94 158 -434 722 -113 186 -218 353 -235 370
-60 64 -85 70 -317 72 -155 2 -219 -1 -246 -10z"/>
<path d="M1120 1119 c-85 -26 -107 -54 -342 -443 -123 -204 -228 -380 -235
-391 -11 -20 -6 -25 81 -78 51 -31 97 -57 102 -57 5 1 106 163 224 362 189
317 219 362 249 375 25 11 65 14 153 11 115 -3 121 -4 142 -29 13 -15 116
-182 231 -373 114 -190 212 -346 216 -346 10 0 159 88 178 106 14 13 14 12
-100 202 -256 427 -345 571 -362 590 -12 13 -42 36 -67 50 -44 27 -49 27 -240
29 -113 1 -210 -2 -230 -8z"/>
</g>
</svg>
