<?xml version="1.0" standalone="no"?>
<!DOCTYPE svg PUBLIC "-//W3C//DTD SVG 20010904//EN"
 "http://www.w3.org/TR/2001/REC-SVG-20010904/DTD/svg10.dtd">
<svg version="1.0" xmlns="http://www.w3.org/2000/svg"
 width="267.000000pt" height="267.000000pt" viewBox="0 0 267.000000 267.000000"
 preserveAspectRatio="xMidYMid meet">
<metadata>
Created by potrace 1.14, written by Peter Selinger 2001-2017
</metadata>
<g transform="translate(0.000000,267.000000) scale(0.100000,-0.100000)"
fill="#000000" stroke="none">
<path d="M1105 2401 c-45 -11 -87 -36 -117 -68 -24 -25 -187 -292 -634 -1038
-76 -126 -146 -241 -155 -255 -9 -14 -58 -94 -108 -179 -71 -118 -89 -156 -79
-163 75 -50 181 -109 186 -104 3 4 54 86 113 184 179 295 503 833 519 861 112
192 303 501 320 516 19 18 39 20 169 23 85 2 157 -1 174 -7 25 -10 61 -57 115
-152 11 -19 73 -122 138 -229 179 -297 495 -821 514 -855 56 -97 194 -322 205
-333 10 -11 29 -3 106 43 52 32 95 58 96 59 2 1 -56 98 -127 216 -72 117 -130
214 -130 215 0 2 -32 55 -290 481 -85 141 -164 273 -176 293 -63 108 -248 409
-262 425 -10 10 -37 30 -62 45 -45 26 -47 26 -265 28 -121 1 -233 -2 -250 -6z"/>
<path d="M1090 1813 c-42 -15 -140 -102 -140 -124 0 -5 -12 -28 -27 -52 -15
-23 -33 -51 -39 -62 -6 -11 -145 -242 -309 -514 -164 -272 -300 -503 -303
-513 -2 -10 0 -18 6 -18 6 0 47 -23 91 -50 44 -28 84 -50 89 -50 7 0 86 129
523 857 92 153 177 284 190 293 28 18 269 25 311 9 15 -6 36 -25 46 -43 11
-17 158 -260 327 -541 169 -280 317 -525 327 -542 11 -18 23 -33 26 -33 8 0
192 111 192 115 0 3 -60 105 -134 227 -74 123 -233 387 -354 588 -121 200
-234 379 -250 396 -62 65 -75 68 -312 70 -174 2 -223 -1 -260 -13z"/>
<path d="M1120 1238 c-48 -14 -113 -65 -143 -113 -39 -63 -408 -676 -428 -712
l-18 -31 94 -56 c51 -31 97 -56 102 -56 4 0 105 163 223 361 161 270 222 364
244 376 22 11 56 14 153 11 121 -3 125 -4 148 -30 13 -15 117 -183 231 -373
114 -190 211 -345 215 -345 5 0 50 26 102 57 l93 57 -170 280 c-93 155 -199
330 -235 391 -70 115 -120 166 -186 184 -46 13 -381 12 -425 -1z"/>
</g>
</svg>
